<?xml version="1.0" encoding="UTF-8"?>
<svg id="Camada_11" data-name="Camada 11" xmlns="http://www.w3.org/2000/svg" xmlns:xlink="http://www.w3.org/1999/xlink" viewBox="0 0 4863.32 1380.77">
  <defs>
    <style>
      .cls-1 {
        letter-spacing: .01em;
      }

      .cls-2 {
        fill: #fff;
      }

      .cls-3 {
        letter-spacing: 0em;
      }

      .cls-4 {
        fill: url(#Gradiente_sem_nome_212);
      }

      .cls-5 {
        letter-spacing: -.01em;
      }

      .cls-6 {
        letter-spacing: 0em;
      }

      .cls-7 {
        font-size: 720px;
      }

      .cls-7, .cls-8 {
        fill: #f28e25;
        font-family: CasualMemories-Bold, 'Casual Memories';
        font-weight: 700;
      }

      .cls-8 {
        font-size: 725px;
      }

      .cls-9 {
        letter-spacing: -.02em;
      }

      .cls-10 {
        fill: #ba5717;
      }

      .cls-11 {
        clip-path: url(#clippath);
      }
    </style>
    <linearGradient id="Gradiente_sem_nome_212" data-name="Gradiente sem nome 212" x1="884.19" y1="1314.66" x2="629.45" y2="49.64" gradientUnits="userSpaceOnUse">
      <stop offset="0" stop-color="#f28e25"/>
      <stop offset=".54" stop-color="#ef7f1d"/>
      <stop offset="1" stop-color="#ef7a1a"/>
    </linearGradient>
    <clipPath id="clippath">
      <ellipse class="cls-4" cx="756.82" cy="682.15" rx="648.64" ry="644.94"/>
    </clipPath>
  </defs>
  <text class="cls-8" transform="translate(2091.27 744.54)"><tspan x="0" y="0">S</tspan><tspan class="cls-9" x="388.7" y="0">a</tspan><tspan class="cls-1" x="732.43" y="0">b</tspan><tspan class="cls-6" x="1136.35" y="0">or</tspan></text>
  <text class="cls-7" transform="translate(1513.7 1153.78)"><tspan x="0" y="0">Fin</tspan><tspan class="cls-9" x="916.88" y="0">a</tspan><tspan x="1258.24" y="0">nc</tspan><tspan class="cls-3" x="1970.16" y="0">e</tspan><tspan x="2304.49" y="0">i</tspan><tspan class="cls-5" x="2506.64" y="0">r</tspan><tspan x="2776.29" y="0">o</tspan></text>
  <g>
    <ellipse class="cls-4" cx="756.82" cy="682.15" rx="648.64" ry="644.94"/>
    <g class="cls-11">
      <path class="cls-2" d="M328.26,869.55c-5.41-1.35-101.56-14.64-80.8-94.68,5.49-21.17,17.72-39.95,34.37-54.12,36.17-30.79,128.92-95.9,327.72-165.32,26.19-9.15,51.13-21.58,74.08-37.16,56.8-38.53,141.84-114.68,121.05-215.52,0,0-64.34,137.87-288,191.49-173.43,41.58-392.17,142.47-347.74,291.06s159.32,84.26,159.32,84.26Z"/>
      <path class="cls-2" d="M384.26,1210.15s204.43,108.26,346.89-44.94c142.47-153.19,203.74-327.83,203.74-327.83,0,0-237.91,235.06-425.87,280.34s-278.47-58.38-278.47-58.38c0,0,32.97,71.1,153.7,150.81Z"/>
      <path class="cls-2" d="M135.24,687.14c.54-1.45,2.67-1.09,2.69.46.5,56.87,28.16,422.77,400.21,50.73,361.96-361.96,413.62-482.04,712.34-435.57,0,0-238.65,101.12-453.45,412.6-200.26,290.38-551.25,355.52-657.45,226.72,0,0-49.04-134.15-4.34-254.93Z"/>
      <path class="cls-10" d="M163.58,962.49s169.31,170.51,517.66-203.78c343.79-369.38,353.7-428.09,566.89-454.04,0,0-210.26,79.84-429.53,398.89-272.68,396.77-621.89,348.78-655.02,258.92Z"/>
      <path class="cls-10" d="M328.26,869.55s-135.07-113.96,4.85-182.38,529.32-175.19,471.58-384.42c0,0,55.49,156.17-437.79,322.04-184.37,62-167.23,229.27-38.63,244.77Z"/>
      <path class="cls-10" d="M305.54,1181.55s337.83,222.51,629.36-344.17c0,0-252.47,679.79-629.36,344.17Z"/>
    </g>
  </g>
</svg>