<?xml version="1.0" encoding="UTF-8"?>
<svg id="Camada_7" data-name="Camada 7" xmlns="http://www.w3.org/2000/svg" xmlns:xlink="http://www.w3.org/1999/xlink" viewBox="0 0 1344 1328.68">
  <defs>
    <style>
      .cls-1 {
        fill: #fff;
      }

      .cls-2 {
        fill: url(#Gradiente_sem_nome_212);
      }

      .cls-3 {
        fill: #ba5717;
      }

      .cls-4 {
        clip-path: url(#clippath);
      }
    </style>
    <linearGradient id="Gradiente_sem_nome_212" data-name="Gradiente sem nome 212" x1="797.29" y1="1298.98" x2="542.55" y2="33.96" gradientUnits="userSpaceOnUse">
      <stop offset="0" stop-color="#f28e25"/>
      <stop offset=".54" stop-color="#ef7f1d"/>
      <stop offset="1" stop-color="#ef7a1a"/>
    </linearGradient>
    <clipPath id="clippath">
      <ellipse class="cls-2" cx="669.92" cy="666.47" rx="648.64" ry="644.94"/>
    </clipPath>
  </defs>
  <ellipse class="cls-2" cx="669.92" cy="666.47" rx="648.64" ry="644.94"/>
  <g class="cls-4">
    <path class="cls-1" d="M241.36,853.87c-5.41-1.35-101.56-14.64-80.8-94.68,5.49-21.17,17.72-39.95,34.37-54.12,36.17-30.79,128.92-95.9,327.72-165.32,26.19-9.15,51.13-21.58,74.08-37.16,56.8-38.53,141.84-114.68,121.05-215.52,0,0-64.34,137.87-288,191.49-173.43,41.58-392.17,142.47-347.74,291.06s159.32,84.26,159.32,84.26Z"/>
    <path class="cls-1" d="M297.36,1194.47s204.43,108.26,346.89-44.94c142.47-153.19,203.74-327.83,203.74-327.83,0,0-237.91,235.06-425.87,280.34s-278.47-58.38-278.47-58.38c0,0,32.97,71.1,153.7,150.81Z"/>
    <path class="cls-1" d="M48.34,671.45c.54-1.45,2.67-1.09,2.69.46.5,56.87,28.16,422.77,400.21,50.73,361.96-361.96,413.62-482.04,712.34-435.57,0,0-238.65,101.12-453.45,412.6-200.26,290.38-551.25,355.52-657.45,226.72,0,0-49.04-134.15-4.34-254.93Z"/>
    <path class="cls-3" d="M76.68,946.81s169.31,170.51,517.66-203.78c343.79-369.38,353.7-428.09,566.89-454.04,0,0-210.26,79.84-429.53,398.89C459.02,1084.65,109.81,1036.66,76.68,946.81Z"/>
    <path class="cls-3" d="M241.36,853.87s-135.07-113.96,4.85-182.38,529.32-175.19,471.58-384.42c0,0,55.49,156.17-437.79,322.04-184.37,62-167.23,229.27-38.63,244.77Z"/>
    <path class="cls-3" d="M218.64,1165.87s337.83,222.51,629.36-344.17c0,0-252.47,679.79-629.36,344.17Z"/>
  </g>
</svg>